PathFileType	4	(X/Y/Z)	T1_P1_NoVision_NoMovement_0_0-649.trc
DataRate	CameraRate	NumFrames	NumMarkers	Units	OrigDataRate	OrigDataStartFrame	OrigNumFrames
60	60	5	27	m	60	0	649
Frame#	Time	RHip			RKnee			RAnkle			RBigToe			RSmallToe			RHeel			LHip			LKnee			LAnkle			LBigToe			LSmallToe			LHeel			Neck			Head			Nose			RShoulder			RElbow			RWrist			RThumb			RIndex			RPinky			LShoulder			LElbow			LWrist			LThumb			LIndex			LPinky		
		X1	Y1	Z1	X2	Y2	Z2	X3	Y3	Z3	X4	Y4	Z4	X5	Y5	Z5	X6	Y6	Z6	X7	Y7	Z7	X8	Y8	Z8	X9	Y9	Z9	X10	Y10	Z10	X11	Y11	Z11	X12	Y12	Z12	X13	Y13	Z13	X14	Y14	Z14	X15	Y15	Z15	X16	Y16	Z16	X17	Y17	Z17	X18	Y18	Z18	X19	Y19	Z19	X20	Y20	Z20	X21	Y21	Z21	X22	Y22	Z22	X23	Y23	Z23	X24	Y24	Z24	X25	Y25	Z25	X26	Y26	Z26	X27	Y27	Z27
1	0.0166666666666666	-71.08008324352193	3815.5320567749704	-509.3255802020061	299.60319998238487	3959.6653753995492	-509.2816103349486	645.63342316441	4156.619909484773	-532.1750926018435	733.2517168796261	4042.153592245257	-517.017327387987	739.1787796656764	4079.4608244066994	-611.1824210803804	669.2091016110896	4175.684874889303	-517.6575131056994	-104.38262192244255	3910.424291139418	-341.1674639716327	260.64980523409776	4025.5829142228604	-335.3484054538627	603.9617184570326	4253.192990540715	-358.9048935422917	678.3893659088537	4134.615958514699	-237.46767554331768	653.0253296045055	4232.75229157098	-226.27121820655427	638.5855045478725	4298.730849752813	-387.98268817323265	-627.6279460319934	3676.2800837911736	-450.68400006189665	-865.7143952219333	3466.629126528213	-353.5686155775218	-696.8641537019813	3499.5463745222683	-298.2344487390662	-556.7919517123472	3608.7490323226207	-563.2199542975479	-297.118285259933	3784.8708451114303	-703.8132478509871	-34.38994075409366	3675.2205831149986	-599.7053451513021	87.26997419570765	3768.6675331084807	-568.1138897528161	108.63497670296746	3746.117546765713	-569.0381585402004	90.8022048751151	3786.0110767388906	-601.9175461080794	-615.6165308836512	3823.5572687404383	-342.7394689298721	-374.27518477302397	3968.068965040659	-290.1609023434148	-131.88640579671636	3950.578952620456	-209.06420848429752	-7.794171876765115	3971.297717581071	-215.69985949434687	11.457027901445745	3990.674895185625	-203.47539453615153	-10.525528962028497	4002.893582578634	-195.44305421266458
2	0.0333333333333333	-71.12111876468505	3815.5320349121275	-509.02043742457874	303.03085356740326	3962.2822167606037	-509.05229339339695	640.706129633	4141.285148275499	-529.3452404668783	732.8121009712465	4047.0994450856574	-523.5193053154637	736.9552848101891	4077.653203617365	-610.5470192357827	666.8142653357606	4175.147699232943	-517.5790640353374	-104.59800706726513	3903.560658712113	-336.4037669817825	258.1450280907076	4024.390548006079	-335.6901732123254	608.1524888522175	4256.01442041808	-360.1322846358567	679.3808232616373	4149.936554847658	-249.70113844547026	658.3557188489195	4244.9865555903725	-233.3204345215845	640.793470886467	4289.217467910973	-385.6521392399611	-627.654406757295	3676.3061488257235	-450.7386061817226	-866.686105750771	3471.384940533267	-354.3023620646981	-696.7208552063377	3499.689357108912	-298.21143771044785	-556.8039490349341	3608.726493073031	-563.1244429602016	-293.9101523403493	3758.7403155375673	-690.5910986970489	-32.64704337512736	3673.913536646205	-598.3157911023571	85.27874525872124	3767.7362365451086	-568.1086796765843	107.25427136126719	3745.0789930545707	-567.322256623898	91.25128600551734	3770.1054357520493	-598.2431160199673	-615.7012480285368	3823.5509788605095	-342.791710607892	-377.6066090023741	3966.8686308655087	-290.44693109641446	-138.34573213513255	3944.4995161510005	-206.92854105387943	-12.290867437349045	3969.867099924467	-215.46803100369297	8.061386999436408	3989.360079436678	-203.92692678935498	-12.023907830012151	4005.129908250357	-195.48958410290277
3	0.05	-71.14084358863256	3815.354197726934	-508.85493437354853	305.2126412780158	3963.9605225574132	-509.28466513375866	638.7745528725143	4135.686944955533	-528.4482594005578	732.1271833688995	4048.7052842086305	-526.1528634521578	736.5238016347809	4077.2270659906317	-610.4776297591644	664.8998461787799	4174.8573202413445	-517.5682622235312	-104.78760920115388	3896.8801103308765	-331.8028479647898	257.6290589074233	4024.2166315437466	-335.8164731785413	610.755552138934	4257.820662219184	-360.891507611209	680.3697025721964	4159.839333865701	-256.1232155401827	660.3689454008252	4250.7514308758355	-236.42597405119943	642.4423934969193	4285.078744174876	-384.5156103213032	-627.6625518680319	3676.288086791049	-450.75610837633184	-867.696172416589	3476.2436256890255	-356.28011131589955	-696.6395675894577	3499.7730115210907	-298.14057267524873	-556.8052640296949	3608.674047104577	-563.0701573276715	-291.71313923326727	3742.822490595151	-682.5783132015206	-31.550738041517935	3672.0340574499683	-596.6816351077041	83.40786222632516	3766.9213566894973	-568.1607271480498	106.73655574549652	3744.6515026250636	-566.4892178822137	91.95981126538777	3760.8195955744413	-596.193411165613	-615.7262067550481	3823.495662970736	-342.79135620076056	-379.7579168426632	3966.033785085513	-290.55919811263266	-141.7319734171818	3939.8669187627843	-204.9019085146125	-14.752031036485729	3969.1622494383782	-215.37430507990553	6.062351873734523	3988.535894154859	-204.17135254172248	-12.651159722926637	4011.8695530062914	-196.41171080920785
4	0.0666666666666666	-71.07923286317244	3815.1607195330735	-509.3867139626705	306.0524194941555	3964.7132155164713	-510.2894204648454	639.132322918166	4137.582377915149	-528.9151507229774	731.3725503999991	4046.221637849907	-524.7709920890301	737.4225269016847	4077.819798108083	-610.7934321486105	664.3221933619984	4174.754670023533	-517.5212610096005	-104.90070739296237	3892.1236746259287	-328.5594060962748	258.7940211155898	4024.8613246161026	-335.73834137646634	611.435480308189	4258.464550974307	-361.0757963306474	680.9831205159686	4162.819155477061	-256.603605205294	659.3945335598222	4249.52515323985	-235.53138698049605	643.649501487371	4288.003084698868	-384.87814973422775	-627.6557607405655	3676.2358090340176	-450.741623525664	-868.4806790544558	3479.9657242231983	-358.6147347336742	-696.6287846310626	3499.8290594011105	-298.0373474552791	-556.7958801286968	3608.6036633107396	-563.0685948906968	-290.4391062368303	3738.0930140180917	-680.2606381910035	-31.041065157533776	3671.463137113248	-596.3744355024292	82.16261300199263	3766.4795550021836	-568.2815240426572	107.07124887528165	3745.0220491905247	-565.9638865817026	92.31886112246431	3758.350469845608	-595.7244048051701	-615.7024243321223	3823.4073319937843	-342.7517943060707	-380.8314772036419	3965.466404077612	-290.45632047255265	-141.6376692325882	3938.9628088989593	-204.3641063047721	-14.836724601243393	3969.420037993006	-215.5001171815604	5.715572309435185	3988.3017676727886	-204.17010063300043	-12.18738705360795	4021.3313545070205	-197.96337090258763
5	0.0833333333333333	-70.87630454324801	3815.6270606665757	-511.4130324520375	306.064890730546	3965.035739552319	-511.57881731170534	639.5679716594198	4138.990026286735	-529.0291256266886	730.2913539722962	4038.036383181848	-520.5907287364525	738.1042650314849	4078.2378471440165	-610.9997170530697	665.3236806346677	4174.6588607365875	-517.3420225807299	-104.92391921482455	3890.5933082078413	-327.5424730607889	259.7654090617727	4025.3174172343543	-335.63139749286984	610.5978162416063	4258.2622702737435	-360.8124042111354	680.8500931427785	4159.437961912201	-254.4938426836037	657.5409064659938	4242.565435511327	-232.3250609922617	644.3876102298428	4293.923047722931	-385.8918960098472	-627.6471535776459	3676.1907710514392	-450.72262905822885	-868.8483795282589	3481.7394430065806	-360.1767769458722	-696.6524777071338	3499.928096818295	-298.0826570767683	-556.7859644897005	3608.5554931976576	-563.0987446544816	-289.7704059277206	3739.565624597593	-680.9478946048332	-30.89595975366675	3673.6313712393585	-598.298572118271	81.86867524652077	3766.4588190408635	-568.409227434286	107.18513780304531	3745.621331317773	-565.0239463172562	91.7671534518298	3758.767291975711	-595.79118569252	-615.6807520347576	3823.338862516064	-342.71533740364293	-381.48803434293063	3964.9656748427346	-290.25221610032435	-140.05135090561717	3942.3202775020504	-206.1690996374019	-13.84818386868243	3970.1324751424536	-215.75224306927765	6.453845986635363	3988.486779945453	-204.0270784485192	-11.322616448380517	4026.4002506439474	-198.92908209537808
